<svg width="32" height="32" viewBox="0 0 32 32" fill="none" xmlns="http://www.w3.org/2000/svg">
<path d="M16 32C24.8366 32 32 24.8366 32 16C32 7.16344 24.8366 0 16 0C7.16344 0 0 7.16344 0 16C0 24.8366 7.16344 32 16 32Z" fill="#01A3FE"/>
<path fill-rule="evenodd" clip-rule="evenodd" d="M21.0865 9L19.6082 14.1092L16.4391 9H21.0865ZM19.9792 14.3373L25.125 13.237L21.4575 9.20218L19.9792 14.3373ZM16.6431 24.2033L24.9976 13.6991L19.8376 14.7994L16.6431 24.2033ZM16.0625 24.625L19.3901 14.8283H12.7349L16.0625 24.625ZM15.4763 24.2033L7.1246 13.6991L12.2846 14.7994L15.4763 24.2033ZM7 13.237L12.1458 14.3373L10.6618 9.20218L7 13.237ZM15.6858 9L12.5111 14.1092L11.0356 9H15.6858ZM12.8198 14.4067H19.3023L16.0625 9.18196L12.8198 14.4067Z" fill="white"/>
</svg>
